# MagicaVoxel @ Ephtracy

# group
o 

# material
mtllib turrethead4.mtl
usemtl palette

# normals
vn -1 0 0
vn 1 0 0
vn 0 0 1
vn 0 0 -1
vn 0 -1 0
vn 0 1 0

# texcoords
vt 0.912109 0.5
vt 0.923828 0.5
vt 0.990234 0.5
vt 0.994141 0.5

# verts
v -0.9 0.2 0.2
v -0.9 0.2 0
v -0.9 0.4 0.2
v -0.9 0.4 0
v -0.8 0 0.2
v -0.8 0 -0.1
v -0.8 0.1 -0.1
v -0.8 0.1 -0.2
v -0.8 0.2 0.3
v -0.8 0.2 0.2
v -0.8 0.2 0
v -0.8 0.4 0.3
v -0.8 0.4 0.2
v -0.8 0.4 0
v -0.8 0.4 -0.1
v -0.8 0.4 -0.2
v -0.8 0.5 0.2
v -0.8 0.5 -0.1
v -0.7 -0.1 0.5
v -0.7 -0.1 -0.1
v -0.7 0 0.5
v -0.7 0 0.2
v -0.7 0 -0.1
v -0.7 0 -0.2
v -0.7 0.1 0.3
v -0.7 0.1 0.2
v -0.7 0.1 -0.1
v -0.7 0.1 -0.2
v -0.7 0.1 -0.3
v -0.7 0.2 1
v -0.7 0.2 0.9
v -0.7 0.2 0.8
v -0.7 0.2 0.7
v -0.7 0.2 0.6
v -0.7 0.2 0.5
v -0.7 0.2 0.4
v -0.7 0.2 0.3
v -0.7 0.2 0.2
v -0.7 0.4 1
v -0.7 0.4 0.9
v -0.7 0.4 0.8
v -0.7 0.4 0.7
v -0.7 0.4 0.6
v -0.7 0.4 0.5
v -0.7 0.4 0.4
v -0.7 0.4 0.3
v -0.7 0.4 0.2
v -0.7 0.4 -0.1
v -0.7 0.4 -0.2
v -0.7 0.4 -0.3
v -0.7 0.5 0.3
v -0.7 0.5 0.2
v -0.7 0.5 0
v -0.7 0.5 -0.1
v -0.7 0.5 -0.2
v -0.7 0.6 0.2
v -0.7 0.6 0
v -0.6 -0.3 0.6
v -0.6 -0.3 0.1
v -0.6 -0.2 0.1
v -0.6 -0.2 0
v -0.6 -0.1 0.6
v -0.6 -0.1 0.5
v -0.6 -0.1 0
v -0.3 -0.3 0.5
v -0.3 -0.3 0.3
v -0.3 -0.1 0.5
v -0.3 -0.1 0.3
v -0.3 0.1 0.3
v -0.3 0.1 0.2
v -0.3 0.2 1
v -0.3 0.2 0.9
v -0.3 0.2 0.8
v -0.3 0.2 0.7
v -0.3 0.2 0.6
v -0.3 0.2 0.5
v -0.3 0.2 0.4
v -0.3 0.2 0.3
v -0.3 0.2 0.2
v -0.3 0.4 1
v -0.3 0.4 0.9
v -0.3 0.4 0.8
v -0.3 0.4 0.7
v -0.3 0.4 0.6
v -0.3 0.4 0.5
v -0.3 0.4 0.4
v -0.3 0.4 0.3
v -0.3 0.4 0.2
v -0.3 0.5 0.3
v -0.3 0.5 0.2
v -0.5 -0.3 0.5
v -0.5 -0.3 0.3
v -0.5 -0.1 0.5
v -0.5 -0.1 0.3
v -0.5 0.1 0.3
v -0.5 0.1 0.2
v -0.5 0.2 1
v -0.5 0.2 0.9
v -0.5 0.2 0.8
v -0.5 0.2 0.7
v -0.5 0.2 0.6
v -0.5 0.2 0.5
v -0.5 0.2 0.4
v -0.5 0.2 0.3
v -0.5 0.2 0.2
v -0.5 0.4 1
v -0.5 0.4 0.9
v -0.5 0.4 0.8
v -0.5 0.4 0.7
v -0.5 0.4 0.6
v -0.5 0.4 0.5
v -0.5 0.4 0.4
v -0.5 0.4 0.3
v -0.5 0.4 0.2
v -0.5 0.5 0.3
v -0.5 0.5 0.2
v -0.2 -0.3 0.6
v -0.2 -0.3 0.1
v -0.2 -0.2 0.1
v -0.2 -0.2 0
v -0.2 -0.1 0.6
v -0.2 -0.1 0.5
v -0.2 -0.1 0
v -0.1 -0.1 0.5
v -0.1 -0.1 -0.1
v -0.1 0 0.5
v -0.1 0 0.2
v -0.1 0 -0.1
v -0.1 0 -0.2
v -0.1 0.1 0.3
v -0.1 0.1 0.2
v -0.1 0.1 -0.1
v -0.1 0.1 -0.2
v -0.1 0.1 -0.3
v -0.1 0.2 1
v -0.1 0.2 0.9
v -0.1 0.2 0.8
v -0.1 0.2 0.7
v -0.1 0.2 0.6
v -0.1 0.2 0.5
v -0.1 0.2 0.4
v -0.1 0.2 0.3
v -0.1 0.2 0.2
v -0.1 0.4 1
v -0.1 0.4 0.9
v -0.1 0.4 0.8
v -0.1 0.4 0.7
v -0.1 0.4 0.6
v -0.1 0.4 0.5
v -0.1 0.4 0.4
v -0.1 0.4 0.3
v -0.1 0.4 0.2
v -0.1 0.4 -0.1
v -0.1 0.4 -0.2
v -0.1 0.4 -0.3
v -0.1 0.5 0.3
v -0.1 0.5 0.2
v -0.1 0.5 0
v -0.1 0.5 -0.1
v -0.1 0.5 -0.2
v -0.1 0.6 0.2
v -0.1 0.6 0
v 0 0 0.2
v 0 0 -0.1
v 0 0.1 -0.1
v 0 0.1 -0.2
v 0 0.2 0.3
v 0 0.2 0.2
v 0 0.2 0
v 0 0.4 0.3
v 0 0.4 0.2
v 0 0.4 0
v 0 0.4 -0.1
v 0 0.4 -0.2
v 0 0.5 0.2
v 0 0.5 -0.1
v 0.1 0.2 0.2
v 0.1 0.2 0
v 0.1 0.4 0.2
v 0.1 0.4 0
v -0.7 0.2 1
v -0.7 0.4 1
v -0.5 0.2 1
v -0.5 0.4 1
v -0.3 0.2 1
v -0.3 0.4 1
v -0.1 0.2 1
v -0.1 0.4 1
v -0.6 -0.3 0.6
v -0.6 -0.1 0.6
v -0.2 -0.3 0.6
v -0.2 -0.1 0.6
v -0.7 -0.1 0.5
v -0.7 0 0.5
v -0.6 -0.1 0.5
v -0.2 -0.1 0.5
v -0.1 -0.1 0.5
v -0.1 0 0.5
v -0.8 0.2 0.3
v -0.8 0.4 0.3
v -0.7 0.1 0.3
v -0.7 0.2 0.3
v -0.7 0.4 0.3
v -0.7 0.5 0.3
v -0.5 -0.3 0.3
v -0.5 -0.1 0.3
v -0.5 0.1 0.3
v -0.5 0.2 0.3
v -0.5 0.4 0.3
v -0.5 0.5 0.3
v -0.3 -0.3 0.3
v -0.3 -0.1 0.3
v -0.3 0.1 0.3
v -0.3 0.2 0.3
v -0.3 0.4 0.3
v -0.3 0.5 0.3
v -0.1 0.1 0.3
v -0.1 0.2 0.3
v -0.1 0.4 0.3
v -0.1 0.5 0.3
v 0 0.2 0.3
v 0 0.4 0.3
v -0.9 0.2 0.2
v -0.9 0.4 0.2
v -0.8 0 0.2
v -0.8 0.2 0.2
v -0.8 0.4 0.2
v -0.8 0.5 0.2
v -0.7 0 0.2
v -0.7 0.1 0.2
v -0.7 0.2 0.2
v -0.7 0.4 0.2
v -0.7 0.5 0.2
v -0.7 0.6 0.2
v -0.5 0.1 0.2
v -0.5 0.2 0.2
v -0.5 0.4 0.2
v -0.5 0.5 0.2
v -0.3 0.1 0.2
v -0.3 0.2 0.2
v -0.3 0.4 0.2
v -0.3 0.5 0.2
v -0.1 0 0.2
v -0.1 0.1 0.2
v -0.1 0.2 0.2
v -0.1 0.4 0.2
v -0.1 0.5 0.2
v -0.1 0.6 0.2
v 0 0 0.2
v 0 0.2 0.2
v 0 0.4 0.2
v 0 0.5 0.2
v 0.1 0.2 0.2
v 0.1 0.4 0.2
v -0.5 -0.3 0.5
v -0.5 -0.1 0.5
v -0.3 -0.3 0.5
v -0.3 -0.1 0.5
v -0.6 -0.3 0.1
v -0.6 -0.2 0.1
v -0.2 -0.3 0.1
v -0.2 -0.2 0.1
v -0.9 0.2 0
v -0.9 0.4 0
v -0.8 0.2 0
v -0.8 0.4 0
v -0.7 0.5 0
v -0.7 0.6 0
v -0.6 -0.2 0
v -0.6 -0.1 0
v -0.2 -0.2 0
v -0.2 -0.1 0
v -0.1 0.5 0
v -0.1 0.6 0
v 0 0.2 0
v 0 0.4 0
v 0.1 0.2 0
v 0.1 0.4 0
v -0.8 0 -0.1
v -0.8 0.1 -0.1
v -0.8 0.4 -0.1
v -0.8 0.5 -0.1
v -0.7 -0.1 -0.1
v -0.7 0 -0.1
v -0.7 0.1 -0.1
v -0.7 0.4 -0.1
v -0.7 0.5 -0.1
v -0.1 -0.1 -0.1
v -0.1 0 -0.1
v -0.1 0.1 -0.1
v -0.1 0.4 -0.1
v -0.1 0.5 -0.1
v 0 0 -0.1
v 0 0.1 -0.1
v 0 0.4 -0.1
v 0 0.5 -0.1
v -0.8 0.1 -0.2
v -0.8 0.4 -0.2
v -0.7 0 -0.2
v -0.7 0.1 -0.2
v -0.7 0.4 -0.2
v -0.7 0.5 -0.2
v -0.1 0 -0.2
v -0.1 0.1 -0.2
v -0.1 0.4 -0.2
v -0.1 0.5 -0.2
v 0 0.1 -0.2
v 0 0.4 -0.2
v -0.7 0.1 -0.3
v -0.7 0.4 -0.3
v -0.1 0.1 -0.3
v -0.1 0.4 -0.3
v -0.6 -0.3 0.6
v -0.2 -0.3 0.6
v -0.5 -0.3 0.5
v -0.3 -0.3 0.5
v -0.5 -0.3 0.3
v -0.3 -0.3 0.3
v -0.6 -0.3 0.1
v -0.2 -0.3 0.1
v -0.6 -0.2 0.1
v -0.2 -0.2 0.1
v -0.6 -0.2 0
v -0.2 -0.2 0
v -0.7 -0.1 0.5
v -0.6 -0.1 0.5
v -0.5 -0.1 0.5
v -0.3 -0.1 0.5
v -0.2 -0.1 0.5
v -0.1 -0.1 0.5
v -0.5 -0.1 0.3
v -0.3 -0.1 0.3
v -0.6 -0.1 0
v -0.2 -0.1 0
v -0.7 -0.1 -0.1
v -0.1 -0.1 -0.1
v -0.8 0 0.2
v -0.7 0 0.2
v -0.1 0 0.2
v 0 0 0.2
v -0.8 0 -0.1
v -0.7 0 -0.1
v -0.1 0 -0.1
v 0 0 -0.1
v -0.7 0 -0.2
v -0.1 0 -0.2
v -0.7 0.1 0.3
v -0.5 0.1 0.3
v -0.3 0.1 0.3
v -0.1 0.1 0.3
v -0.7 0.1 0.2
v -0.5 0.1 0.2
v -0.3 0.1 0.2
v -0.1 0.1 0.2
v -0.8 0.1 -0.1
v -0.7 0.1 -0.1
v -0.1 0.1 -0.1
v 0 0.1 -0.1
v -0.8 0.1 -0.2
v -0.7 0.1 -0.2
v -0.1 0.1 -0.2
v 0 0.1 -0.2
v -0.7 0.1 -0.3
v -0.1 0.1 -0.3
v -0.7 0.2 1
v -0.5 0.2 1
v -0.3 0.2 1
v -0.1 0.2 1
v -0.7 0.2 0.9
v -0.5 0.2 0.9
v -0.3 0.2 0.9
v -0.1 0.2 0.9
v -0.7 0.2 0.8
v -0.5 0.2 0.8
v -0.3 0.2 0.8
v -0.1 0.2 0.8
v -0.7 0.2 0.7
v -0.5 0.2 0.7
v -0.3 0.2 0.7
v -0.1 0.2 0.7
v -0.7 0.2 0.6
v -0.5 0.2 0.6
v -0.3 0.2 0.6
v -0.1 0.2 0.6
v -0.7 0.2 0.5
v -0.5 0.2 0.5
v -0.3 0.2 0.5
v -0.1 0.2 0.5
v -0.7 0.2 0.4
v -0.5 0.2 0.4
v -0.3 0.2 0.4
v -0.1 0.2 0.4
v -0.8 0.2 0.3
v -0.7 0.2 0.3
v -0.5 0.2 0.3
v -0.3 0.2 0.3
v -0.1 0.2 0.3
v 0 0.2 0.3
v -0.9 0.2 0.2
v -0.8 0.2 0.2
v -0.7 0.2 0.2
v -0.5 0.2 0.2
v -0.3 0.2 0.2
v -0.1 0.2 0.2
v 0 0.2 0.2
v 0.1 0.2 0.2
v -0.9 0.2 0
v -0.8 0.2 0
v 0 0.2 0
v 0.1 0.2 0
v -0.6 -0.1 0.6
v -0.2 -0.1 0.6
v -0.6 -0.1 0.5
v -0.2 -0.1 0.5
v -0.7 0 0.5
v -0.1 0 0.5
v -0.7 0 0.2
v -0.1 0 0.2
v -0.7 0.4 1
v -0.5 0.4 1
v -0.3 0.4 1
v -0.1 0.4 1
v -0.7 0.4 0.9
v -0.5 0.4 0.9
v -0.3 0.4 0.9
v -0.1 0.4 0.9
v -0.7 0.4 0.8
v -0.5 0.4 0.8
v -0.3 0.4 0.8
v -0.1 0.4 0.8
v -0.7 0.4 0.7
v -0.5 0.4 0.7
v -0.3 0.4 0.7
v -0.1 0.4 0.7
v -0.7 0.4 0.6
v -0.5 0.4 0.6
v -0.3 0.4 0.6
v -0.1 0.4 0.6
v -0.7 0.4 0.5
v -0.5 0.4 0.5
v -0.3 0.4 0.5
v -0.1 0.4 0.5
v -0.7 0.4 0.4
v -0.5 0.4 0.4
v -0.3 0.4 0.4
v -0.1 0.4 0.4
v -0.8 0.4 0.3
v -0.7 0.4 0.3
v -0.5 0.4 0.3
v -0.3 0.4 0.3
v -0.1 0.4 0.3
v 0 0.4 0.3
v -0.9 0.4 0.2
v -0.8 0.4 0.2
v -0.7 0.4 0.2
v -0.5 0.4 0.2
v -0.3 0.4 0.2
v -0.1 0.4 0.2
v 0 0.4 0.2
v 0.1 0.4 0.2
v -0.9 0.4 0
v -0.8 0.4 0
v 0 0.4 0
v 0.1 0.4 0
v -0.8 0.4 -0.1
v -0.7 0.4 -0.1
v -0.1 0.4 -0.1
v 0 0.4 -0.1
v -0.8 0.4 -0.2
v -0.7 0.4 -0.2
v -0.1 0.4 -0.2
v 0 0.4 -0.2
v -0.7 0.4 -0.3
v -0.1 0.4 -0.3
v -0.7 0.5 0.3
v -0.5 0.5 0.3
v -0.3 0.5 0.3
v -0.1 0.5 0.3
v -0.8 0.5 0.2
v -0.7 0.5 0.2
v -0.5 0.5 0.2
v -0.3 0.5 0.2
v -0.1 0.5 0.2
v 0 0.5 0.2
v -0.7 0.5 0
v -0.1 0.5 0
v -0.8 0.5 -0.1
v -0.7 0.5 -0.1
v -0.1 0.5 -0.1
v 0 0.5 -0.1
v -0.7 0.5 -0.2
v -0.1 0.5 -0.2
v -0.7 0.6 0.2
v -0.1 0.6 0.2
v -0.7 0.6 0
v -0.1 0.6 0

# faces
f 3/3/1 2/3/1 1/3/1
f 4/3/1 2/3/1 3/3/1
f 7/3/1 6/3/1 5/3/1
f 10/3/1 7/3/1 5/3/1
f 10/3/1 8/3/1 7/3/1
f 11/3/1 8/3/1 10/3/1
f 12/4/1 10/4/1 9/4/1
f 13/4/1 10/4/1 12/4/1
f 14/3/1 8/3/1 11/3/1
f 15/3/1 8/3/1 14/3/1
f 16/3/1 8/3/1 15/3/1
f 17/3/1 14/3/1 13/3/1
f 17/3/1 15/3/1 14/3/1
f 18/3/1 15/3/1 17/3/1
f 21/3/1 20/3/1 19/3/1
f 22/3/1 20/3/1 21/3/1
f 23/3/1 20/3/1 22/3/1
f 27/3/1 24/3/1 23/3/1
f 28/3/1 24/3/1 27/3/1
f 37/4/1 26/4/1 25/4/1
f 38/4/1 26/4/1 37/4/1
f 39/4/1 31/4/1 30/4/1
f 40/2/1 32/2/1 31/2/1
f 40/4/1 31/4/1 39/4/1
f 41/1/1 33/1/1 32/1/1
f 41/2/1 32/2/1 40/2/1
f 42/2/1 34/2/1 33/2/1
f 42/1/1 33/1/1 41/1/1
f 43/1/1 35/1/1 34/1/1
f 43/2/1 34/2/1 42/2/1
f 44/2/1 36/2/1 35/2/1
f 44/1/1 35/1/1 43/1/1
f 45/1/1 37/1/1 36/1/1
f 45/2/1 36/2/1 44/2/1
f 46/1/1 37/1/1 45/1/1
f 49/3/1 29/3/1 28/3/1
f 50/3/1 29/3/1 49/3/1
f 51/4/1 47/4/1 46/4/1
f 52/4/1 47/4/1 51/4/1
f 54/3/1 49/3/1 48/3/1
f 55/3/1 49/3/1 54/3/1
f 56/3/1 53/3/1 52/3/1
f 57/3/1 53/3/1 56/3/1
f 60/3/1 59/3/1 58/3/1
f 62/3/1 60/3/1 58/3/1
f 62/3/1 61/3/1 60/3/1
f 63/3/1 61/3/1 62/3/1
f 64/3/1 61/3/1 63/3/1
f 67/3/1 66/3/1 65/3/1
f 68/3/1 66/3/1 67/3/1
f 78/4/1 70/4/1 69/4/1
f 79/4/1 70/4/1 78/4/1
f 80/4/1 72/4/1 71/4/1
f 81/2/1 73/2/1 72/2/1
f 81/4/1 72/4/1 80/4/1
f 82/1/1 74/1/1 73/1/1
f 82/2/1 73/2/1 81/2/1
f 83/2/1 75/2/1 74/2/1
f 83/1/1 74/1/1 82/1/1
f 84/1/1 76/1/1 75/1/1
f 84/2/1 75/2/1 83/2/1
f 85/2/1 77/2/1 76/2/1
f 85/1/1 76/1/1 84/1/1
f 86/1/1 78/1/1 77/1/1
f 86/2/1 77/2/1 85/2/1
f 87/1/1 78/1/1 86/1/1
f 89/4/1 88/4/1 87/4/1
f 90/4/1 88/4/1 89/4/1
f 91/3/2 92/3/2 93/3/2
f 93/3/2 92/3/2 94/3/2
f 95/4/2 96/4/2 104/4/2
f 104/4/2 96/4/2 105/4/2
f 97/4/2 98/4/2 106/4/2
f 98/2/2 99/2/2 107/2/2
f 106/4/2 98/4/2 107/4/2
f 99/1/2 100/1/2 108/1/2
f 107/2/2 99/2/2 108/2/2
f 100/2/2 101/2/2 109/2/2
f 108/1/2 100/1/2 109/1/2
f 101/1/2 102/1/2 110/1/2
f 109/2/2 101/2/2 110/2/2
f 102/2/2 103/2/2 111/2/2
f 110/1/2 102/1/2 111/1/2
f 103/1/2 104/1/2 112/1/2
f 111/2/2 103/2/2 112/2/2
f 112/1/2 104/1/2 113/1/2
f 113/4/2 114/4/2 115/4/2
f 115/4/2 114/4/2 116/4/2
f 117/3/2 118/3/2 119/3/2
f 117/3/2 119/3/2 121/3/2
f 119/3/2 120/3/2 121/3/2
f 121/3/2 120/3/2 122/3/2
f 122/3/2 120/3/2 123/3/2
f 124/3/2 125/3/2 126/3/2
f 126/3/2 125/3/2 127/3/2
f 127/3/2 125/3/2 128/3/2
f 128/3/2 129/3/2 132/3/2
f 132/3/2 129/3/2 133/3/2
f 130/4/2 131/4/2 142/4/2
f 142/4/2 131/4/2 143/4/2
f 135/4/2 136/4/2 144/4/2
f 136/2/2 137/2/2 145/2/2
f 144/4/2 136/4/2 145/4/2
f 137/1/2 138/1/2 146/1/2
f 145/2/2 137/2/2 146/2/2
f 138/2/2 139/2/2 147/2/2
f 146/1/2 138/1/2 147/1/2
f 139/1/2 140/1/2 148/1/2
f 147/2/2 139/2/2 148/2/2
f 140/2/2 141/2/2 149/2/2
f 148/1/2 140/1/2 149/1/2
f 141/1/2 142/1/2 150/1/2
f 149/2/2 141/2/2 150/2/2
f 150/1/2 142/1/2 151/1/2
f 133/3/2 134/3/2 154/3/2
f 154/3/2 134/3/2 155/3/2
f 151/4/2 152/4/2 156/4/2
f 156/4/2 152/4/2 157/4/2
f 153/3/2 154/3/2 159/3/2
f 159/3/2 154/3/2 160/3/2
f 157/3/2 158/3/2 161/3/2
f 161/3/2 158/3/2 162/3/2
f 163/3/2 164/3/2 165/3/2
f 163/3/2 165/3/2 168/3/2
f 165/3/2 166/3/2 168/3/2
f 168/3/2 166/3/2 169/3/2
f 167/4/2 168/4/2 170/4/2
f 170/4/2 168/4/2 171/4/2
f 169/3/2 166/3/2 172/3/2
f 172/3/2 166/3/2 173/3/2
f 173/3/2 166/3/2 174/3/2
f 171/3/2 172/3/2 175/3/2
f 172/3/2 173/3/2 175/3/2
f 175/3/2 173/3/2 176/3/2
f 177/3/2 178/3/2 179/3/2
f 179/3/2 178/3/2 180/3/2
f 183/4/3 182/4/3 181/4/3
f 184/4/3 182/4/3 183/4/3
f 187/4/3 186/4/3 185/4/3
f 188/4/3 186/4/3 187/4/3
f 191/3/3 190/3/3 189/3/3
f 192/3/3 190/3/3 191/3/3
f 195/3/3 194/3/3 193/3/3
f 196/3/3 194/3/3 195/3/3
f 197/3/3 194/3/3 196/3/3
f 198/3/3 194/3/3 197/3/3
f 202/4/3 200/4/3 199/4/3
f 203/4/3 200/4/3 202/4/3
f 207/4/3 202/4/3 201/4/3
f 208/4/3 202/4/3 207/4/3
f 209/4/3 204/4/3 203/4/3
f 210/4/3 204/4/3 209/4/3
f 211/3/3 206/3/3 205/3/3
f 212/3/3 206/3/3 211/3/3
f 214/4/3 209/4/3 208/4/3
f 215/4/3 209/4/3 214/4/3
f 217/4/3 214/4/3 213/4/3
f 218/4/3 214/4/3 217/4/3
f 219/4/3 216/4/3 215/4/3
f 220/4/3 216/4/3 219/4/3
f 221/4/3 219/4/3 218/4/3
f 222/4/3 219/4/3 221/4/3
f 226/3/3 224/3/3 223/3/3
f 227/3/3 224/3/3 226/3/3
f 229/3/3 226/3/3 225/3/3
f 230/3/3 226/3/3 229/3/3
f 231/3/3 226/3/3 230/3/3
f 232/3/3 228/3/3 227/3/3
f 233/3/3 228/3/3 232/3/3
f 235/3/3 230/3/3 229/3/3
f 238/3/3 234/3/3 233/3/3
f 239/3/3 236/3/3 235/3/3
f 239/3/3 235/3/3 229/3/3
f 240/3/3 236/3/3 239/3/3
f 241/3/3 238/3/3 237/3/3
f 242/3/3 234/3/3 238/3/3
f 242/3/3 238/3/3 241/3/3
f 243/3/3 239/3/3 229/3/3
f 244/3/3 239/3/3 243/3/3
f 247/3/3 234/3/3 242/3/3
f 248/3/3 234/3/3 247/3/3
f 249/3/3 245/3/3 244/3/3
f 249/3/3 244/3/3 243/3/3
f 250/3/3 245/3/3 249/3/3
f 251/3/3 247/3/3 246/3/3
f 252/3/3 247/3/3 251/3/3
f 253/3/3 251/3/3 250/3/3
f 254/3/3 251/3/3 253/3/3
f 255/3/4 256/3/4 257/3/4
f 257/3/4 256/3/4 258/3/4
f 259/3/4 260/3/4 261/3/4
f 261/3/4 260/3/4 262/3/4
f 263/3/4 264/3/4 265/3/4
f 265/3/4 264/3/4 266/3/4
f 269/3/4 270/3/4 271/3/4
f 271/3/4 270/3/4 272/3/4
f 267/3/4 268/3/4 273/3/4
f 273/3/4 268/3/4 274/3/4
f 275/3/4 276/3/4 277/3/4
f 277/3/4 276/3/4 278/3/4
f 279/3/4 280/3/4 284/3/4
f 284/3/4 280/3/4 285/3/4
f 281/3/4 282/3/4 286/3/4
f 286/3/4 282/3/4 287/3/4
f 283/3/4 284/3/4 288/3/4
f 288/3/4 284/3/4 289/3/4
f 289/3/4 290/3/4 293/3/4
f 293/3/4 290/3/4 294/3/4
f 291/3/4 292/3/4 295/3/4
f 295/3/4 292/3/4 296/3/4
f 297/3/4 298/3/4 300/3/4
f 300/3/4 298/3/4 301/3/4
f 299/3/4 300/3/4 303/3/4
f 303/3/4 300/3/4 304/3/4
f 301/3/4 302/3/4 305/3/4
f 305/3/4 302/3/4 306/3/4
f 304/3/4 305/3/4 307/3/4
f 307/3/4 305/3/4 308/3/4
f 309/3/4 310/3/4 311/3/4
f 311/3/4 310/3/4 312/3/4
f 315/3/5 314/3/5 313/3/5
f 316/3/5 314/3/5 315/3/5
f 317/3/5 315/3/5 313/3/5
f 318/3/5 314/3/5 316/3/5
f 319/3/5 317/3/5 313/3/5
f 319/3/5 318/3/5 317/3/5
f 320/3/5 314/3/5 318/3/5
f 320/3/5 318/3/5 319/3/5
f 323/3/5 322/3/5 321/3/5
f 324/3/5 322/3/5 323/3/5
f 331/3/5 328/3/5 327/3/5
f 332/3/5 328/3/5 331/3/5
f 333/3/5 326/3/5 325/3/5
f 334/3/5 330/3/5 329/3/5
f 335/3/5 333/3/5 325/3/5
f 335/3/5 334/3/5 333/3/5
f 336/3/5 330/3/5 334/3/5
f 336/3/5 334/3/5 335/3/5
f 341/3/5 338/3/5 337/3/5
f 342/3/5 338/3/5 341/3/5
f 343/3/5 340/3/5 339/3/5
f 344/3/5 340/3/5 343/3/5
f 345/3/5 343/3/5 342/3/5
f 346/3/5 343/3/5 345/3/5
f 351/4/5 348/4/5 347/4/5
f 352/4/5 348/4/5 351/4/5
f 353/4/5 350/4/5 349/4/5
f 354/4/5 350/4/5 353/4/5
f 359/3/5 356/3/5 355/3/5
f 360/3/5 356/3/5 359/3/5
f 361/3/5 358/3/5 357/3/5
f 362/3/5 358/3/5 361/3/5
f 363/3/5 361/3/5 360/3/5
f 364/3/5 361/3/5 363/3/5
f 369/4/5 366/4/5 365/4/5
f 370/4/5 366/4/5 369/4/5
f 371/4/5 368/4/5 367/4/5
f 372/4/5 368/4/5 371/4/5
f 373/2/5 370/2/5 369/2/5
f 374/2/5 370/2/5 373/2/5
f 375/2/5 372/2/5 371/2/5
f 376/2/5 372/2/5 375/2/5
f 377/1/5 374/1/5 373/1/5
f 378/1/5 374/1/5 377/1/5
f 379/1/5 376/1/5 375/1/5
f 380/1/5 376/1/5 379/1/5
f 381/2/5 378/2/5 377/2/5
f 382/2/5 378/2/5 381/2/5
f 383/2/5 380/2/5 379/2/5
f 384/2/5 380/2/5 383/2/5
f 385/1/5 382/1/5 381/1/5
f 386/1/5 382/1/5 385/1/5
f 387/1/5 384/1/5 383/1/5
f 388/1/5 384/1/5 387/1/5
f 389/2/5 386/2/5 385/2/5
f 390/2/5 386/2/5 389/2/5
f 391/2/5 388/2/5 387/2/5
f 392/2/5 388/2/5 391/2/5
f 394/1/5 390/1/5 389/1/5
f 395/1/5 390/1/5 394/1/5
f 396/1/5 392/1/5 391/1/5
f 397/1/5 392/1/5 396/1/5
f 400/4/5 394/4/5 393/4/5
f 401/4/5 394/4/5 400/4/5
f 402/4/5 396/4/5 395/4/5
f 403/4/5 396/4/5 402/4/5
f 404/4/5 398/4/5 397/4/5
f 405/4/5 398/4/5 404/4/5
f 407/3/5 400/3/5 399/3/5
f 408/3/5 400/3/5 407/3/5
f 409/3/5 406/3/5 405/3/5
f 410/3/5 406/3/5 409/3/5
f 411/3/6 412/3/6 413/3/6
f 413/3/6 412/3/6 414/3/6
f 415/3/6 416/3/6 417/3/6
f 417/3/6 416/3/6 418/3/6
f 419/4/6 420/4/6 423/4/6
f 423/4/6 420/4/6 424/4/6
f 421/4/6 422/4/6 425/4/6
f 425/4/6 422/4/6 426/4/6
f 423/2/6 424/2/6 427/2/6
f 427/2/6 424/2/6 428/2/6
f 425/2/6 426/2/6 429/2/6
f 429/2/6 426/2/6 430/2/6
f 427/1/6 428/1/6 431/1/6
f 431/1/6 428/1/6 432/1/6
f 429/1/6 430/1/6 433/1/6
f 433/1/6 430/1/6 434/1/6
f 431/2/6 432/2/6 435/2/6
f 435/2/6 432/2/6 436/2/6
f 433/2/6 434/2/6 437/2/6
f 437/2/6 434/2/6 438/2/6
f 435/1/6 436/1/6 439/1/6
f 439/1/6 436/1/6 440/1/6
f 437/1/6 438/1/6 441/1/6
f 441/1/6 438/1/6 442/1/6
f 439/2/6 440/2/6 443/2/6
f 443/2/6 440/2/6 444/2/6
f 441/2/6 442/2/6 445/2/6
f 445/2/6 442/2/6 446/2/6
f 443/1/6 444/1/6 448/1/6
f 448/1/6 444/1/6 449/1/6
f 445/1/6 446/1/6 450/1/6
f 450/1/6 446/1/6 451/1/6
f 447/4/6 448/4/6 454/4/6
f 454/4/6 448/4/6 455/4/6
f 449/4/6 450/4/6 456/4/6
f 456/4/6 450/4/6 457/4/6
f 451/4/6 452/4/6 458/4/6
f 458/4/6 452/4/6 459/4/6
f 453/3/6 454/3/6 461/3/6
f 461/3/6 454/3/6 462/3/6
f 459/3/6 460/3/6 463/3/6
f 463/3/6 460/3/6 464/3/6
f 465/3/6 466/3/6 469/3/6
f 469/3/6 466/3/6 470/3/6
f 467/3/6 468/3/6 471/3/6
f 471/3/6 468/3/6 472/3/6
f 470/3/6 471/3/6 473/3/6
f 473/3/6 471/3/6 474/3/6
f 475/4/6 476/4/6 480/4/6
f 480/4/6 476/4/6 481/4/6
f 477/4/6 478/4/6 482/4/6
f 482/4/6 478/4/6 483/4/6
f 479/3/6 480/3/6 485/3/6
f 483/3/6 484/3/6 486/3/6
f 479/3/6 485/3/6 487/3/6
f 485/3/6 486/3/6 487/3/6
f 487/3/6 486/3/6 488/3/6
f 486/3/6 484/3/6 489/3/6
f 488/3/6 486/3/6 489/3/6
f 489/3/6 484/3/6 490/3/6
f 488/3/6 489/3/6 491/3/6
f 491/3/6 489/3/6 492/3/6
f 493/3/6 494/3/6 495/3/6
f 495/3/6 494/3/6 496/3/6
