# MagicaVoxel @ Ephtracy

# group
o 

# material
mtllib turrethead3.mtl
usemtl palette

# normals
vn -1 0 0
vn 1 0 0
vn 0 0 1
vn 0 0 -1
vn 0 -1 0
vn 0 1 0

# texcoords
vt 0.912109 0.5
vt 0.923828 0.5
vt 0.986328 0.5
vt 0.994141 0.5

# verts
v -0.9 0.2 0.2
v -0.9 0.2 0
v -0.9 0.4 0.2
v -0.9 0.4 0
v -0.8 0 0.1
v -0.8 0 -0.1
v -0.8 0.1 0.2
v -0.8 0.1 0.1
v -0.8 0.1 -0.1
v -0.8 0.1 -0.2
v -0.8 0.2 0.3
v -0.8 0.2 0.2
v -0.8 0.2 0
v -0.8 0.4 0.3
v -0.8 0.4 0.2
v -0.8 0.4 0
v -0.8 0.4 -0.1
v -0.8 0.4 -0.2
v -0.8 0.5 0.2
v -0.8 0.5 -0.1
v -0.7 0 0.2
v -0.7 0 0.1
v -0.7 0 -0.1
v -0.7 0 -0.2
v -0.7 0.1 0.3
v -0.7 0.1 0.2
v -0.7 0.1 0.1
v -0.7 0.1 -0.1
v -0.7 0.1 -0.2
v -0.7 0.1 -0.3
v -0.7 0.2 1
v -0.7 0.2 0.9
v -0.7 0.2 0.8
v -0.7 0.2 0.7
v -0.7 0.2 0.6
v -0.7 0.2 0.5
v -0.7 0.2 0.4
v -0.7 0.2 0.3
v -0.7 0.2 0.2
v -0.7 0.4 1
v -0.7 0.4 0.9
v -0.7 0.4 0.8
v -0.7 0.4 0.7
v -0.7 0.4 0.6
v -0.7 0.4 0.5
v -0.7 0.4 0.4
v -0.7 0.4 0.3
v -0.7 0.4 0.2
v -0.7 0.4 -0.1
v -0.7 0.4 -0.2
v -0.7 0.4 -0.3
v -0.7 0.5 0.3
v -0.7 0.5 0.2
v -0.7 0.5 0
v -0.7 0.5 -0.1
v -0.7 0.5 -0.2
v -0.7 0.6 0.2
v -0.7 0.6 0
v -0.3 0 0.1
v -0.3 0 -0.1
v -0.3 0.1 0.3
v -0.3 0.1 0.2
v -0.3 0.2 1
v -0.3 0.2 0.9
v -0.3 0.2 0.8
v -0.3 0.2 0.7
v -0.3 0.2 0.6
v -0.3 0.2 0.5
v -0.3 0.2 0.4
v -0.3 0.2 0.3
v -0.3 0.2 0.2
v -0.3 0.2 0.1
v -0.3 0.2 -0.1
v -0.3 0.4 1
v -0.3 0.4 0.9
v -0.3 0.4 0.8
v -0.3 0.4 0.7
v -0.3 0.4 0.6
v -0.3 0.4 0.5
v -0.3 0.4 0.4
v -0.3 0.4 0.3
v -0.3 0.4 0.2
v -0.3 0.5 0.3
v -0.3 0.5 0.2
v -0.5 0 0.1
v -0.5 0 -0.1
v -0.5 0.1 0.3
v -0.5 0.1 0.2
v -0.5 0.2 1
v -0.5 0.2 0.9
v -0.5 0.2 0.8
v -0.5 0.2 0.7
v -0.5 0.2 0.6
v -0.5 0.2 0.5
v -0.5 0.2 0.4
v -0.5 0.2 0.3
v -0.5 0.2 0.2
v -0.5 0.2 0.1
v -0.5 0.2 -0.1
v -0.5 0.4 1
v -0.5 0.4 0.9
v -0.5 0.4 0.8
v -0.5 0.4 0.7
v -0.5 0.4 0.6
v -0.5 0.4 0.5
v -0.5 0.4 0.4
v -0.5 0.4 0.3
v -0.5 0.4 0.2
v -0.5 0.5 0.3
v -0.5 0.5 0.2
v -0.1 0 0.2
v -0.1 0 0.1
v -0.1 0 -0.1
v -0.1 0 -0.2
v -0.1 0.1 0.3
v -0.1 0.1 0.2
v -0.1 0.1 0.1
v -0.1 0.1 -0.1
v -0.1 0.1 -0.2
v -0.1 0.1 -0.3
v -0.1 0.2 1
v -0.1 0.2 0.9
v -0.1 0.2 0.8
v -0.1 0.2 0.7
v -0.1 0.2 0.6
v -0.1 0.2 0.5
v -0.1 0.2 0.4
v -0.1 0.2 0.3
v -0.1 0.2 0.2
v -0.1 0.4 1
v -0.1 0.4 0.9
v -0.1 0.4 0.8
v -0.1 0.4 0.7
v -0.1 0.4 0.6
v -0.1 0.4 0.5
v -0.1 0.4 0.4
v -0.1 0.4 0.3
v -0.1 0.4 0.2
v -0.1 0.4 -0.1
v -0.1 0.4 -0.2
v -0.1 0.4 -0.3
v -0.1 0.5 0.3
v -0.1 0.5 0.2
v -0.1 0.5 0
v -0.1 0.5 -0.1
v -0.1 0.5 -0.2
v -0.1 0.6 0.2
v -0.1 0.6 0
v 0 0 0.1
v 0 0 -0.1
v 0 0.1 0.2
v 0 0.1 0.1
v 0 0.1 -0.1
v 0 0.1 -0.2
v 0 0.2 0.3
v 0 0.2 0.2
v 0 0.2 0
v 0 0.4 0.3
v 0 0.4 0.2
v 0 0.4 0
v 0 0.4 -0.1
v 0 0.4 -0.2
v 0 0.5 0.2
v 0 0.5 -0.1
v 0.1 0.2 0.2
v 0.1 0.2 0
v 0.1 0.4 0.2
v 0.1 0.4 0
v -0.7 0.2 1
v -0.7 0.4 1
v -0.5 0.2 1
v -0.5 0.4 1
v -0.3 0.2 1
v -0.3 0.4 1
v -0.1 0.2 1
v -0.1 0.4 1
v -0.8 0.2 0.3
v -0.8 0.4 0.3
v -0.7 0.1 0.3
v -0.7 0.2 0.3
v -0.7 0.4 0.3
v -0.7 0.5 0.3
v -0.5 0.1 0.3
v -0.5 0.2 0.3
v -0.5 0.4 0.3
v -0.5 0.5 0.3
v -0.3 0.1 0.3
v -0.3 0.2 0.3
v -0.3 0.4 0.3
v -0.3 0.5 0.3
v -0.1 0.1 0.3
v -0.1 0.2 0.3
v -0.1 0.4 0.3
v -0.1 0.5 0.3
v 0 0.2 0.3
v 0 0.4 0.3
v -0.9 0.2 0.2
v -0.9 0.4 0.2
v -0.8 0.1 0.2
v -0.8 0.2 0.2
v -0.8 0.4 0.2
v -0.8 0.5 0.2
v -0.7 0 0.2
v -0.7 0.1 0.2
v -0.7 0.2 0.2
v -0.7 0.4 0.2
v -0.7 0.5 0.2
v -0.7 0.6 0.2
v -0.5 0.1 0.2
v -0.5 0.2 0.2
v -0.5 0.4 0.2
v -0.5 0.5 0.2
v -0.3 0.1 0.2
v -0.3 0.2 0.2
v -0.3 0.4 0.2
v -0.3 0.5 0.2
v -0.1 0 0.2
v -0.1 0.1 0.2
v -0.1 0.2 0.2
v -0.1 0.4 0.2
v -0.1 0.5 0.2
v -0.1 0.6 0.2
v 0 0.1 0.2
v 0 0.2 0.2
v 0 0.4 0.2
v 0 0.5 0.2
v 0.1 0.2 0.2
v 0.1 0.4 0.2
v -0.8 0 0.1
v -0.8 0.1 0.1
v -0.7 0 0.1
v -0.7 0.1 0.1
v -0.1 0 0.1
v -0.1 0.1 0.1
v 0 0 0.1
v 0 0.1 0.1
v -0.5 0 -0.1
v -0.5 0.2 -0.1
v -0.3 0 -0.1
v -0.3 0.2 -0.1
v -0.5 0 0.1
v -0.5 0.2 0.1
v -0.3 0 0.1
v -0.3 0.2 0.1
v -0.9 0.2 0
v -0.9 0.4 0
v -0.8 0.2 0
v -0.8 0.4 0
v -0.7 0.5 0
v -0.7 0.6 0
v -0.1 0.5 0
v -0.1 0.6 0
v 0 0.2 0
v 0 0.4 0
v 0.1 0.2 0
v 0.1 0.4 0
v -0.8 0 -0.1
v -0.8 0.1 -0.1
v -0.8 0.4 -0.1
v -0.8 0.5 -0.1
v -0.7 0 -0.1
v -0.7 0.1 -0.1
v -0.7 0.4 -0.1
v -0.7 0.5 -0.1
v -0.1 0 -0.1
v -0.1 0.1 -0.1
v -0.1 0.4 -0.1
v -0.1 0.5 -0.1
v 0 0 -0.1
v 0 0.1 -0.1
v 0 0.4 -0.1
v 0 0.5 -0.1
v -0.8 0.1 -0.2
v -0.8 0.4 -0.2
v -0.7 0 -0.2
v -0.7 0.1 -0.2
v -0.7 0.4 -0.2
v -0.7 0.5 -0.2
v -0.1 0 -0.2
v -0.1 0.1 -0.2
v -0.1 0.4 -0.2
v -0.1 0.5 -0.2
v 0 0.1 -0.2
v 0 0.4 -0.2
v -0.7 0.1 -0.3
v -0.7 0.4 -0.3
v -0.1 0.1 -0.3
v -0.1 0.4 -0.3
v -0.7 0 0.2
v -0.1 0 0.2
v -0.8 0 0.1
v -0.7 0 0.1
v -0.5 0 0.1
v -0.3 0 0.1
v -0.1 0 0.1
v 0 0 0.1
v -0.8 0 -0.1
v -0.7 0 -0.1
v -0.5 0 -0.1
v -0.3 0 -0.1
v -0.1 0 -0.1
v 0 0 -0.1
v -0.7 0 -0.2
v -0.1 0 -0.2
v -0.7 0.1 0.3
v -0.5 0.1 0.3
v -0.3 0.1 0.3
v -0.1 0.1 0.3
v -0.8 0.1 0.2
v -0.7 0.1 0.2
v -0.5 0.1 0.2
v -0.3 0.1 0.2
v -0.1 0.1 0.2
v 0 0.1 0.2
v -0.8 0.1 0.1
v -0.7 0.1 0.1
v -0.1 0.1 0.1
v 0 0.1 0.1
v -0.8 0.1 -0.1
v -0.7 0.1 -0.1
v -0.1 0.1 -0.1
v 0 0.1 -0.1
v -0.8 0.1 -0.2
v -0.7 0.1 -0.2
v -0.1 0.1 -0.2
v 0 0.1 -0.2
v -0.7 0.1 -0.3
v -0.1 0.1 -0.3
v -0.7 0.2 1
v -0.5 0.2 1
v -0.3 0.2 1
v -0.1 0.2 1
v -0.7 0.2 0.9
v -0.5 0.2 0.9
v -0.3 0.2 0.9
v -0.1 0.2 0.9
v -0.7 0.2 0.8
v -0.5 0.2 0.8
v -0.3 0.2 0.8
v -0.1 0.2 0.8
v -0.7 0.2 0.7
v -0.5 0.2 0.7
v -0.3 0.2 0.7
v -0.1 0.2 0.7
v -0.7 0.2 0.6
v -0.5 0.2 0.6
v -0.3 0.2 0.6
v -0.1 0.2 0.6
v -0.7 0.2 0.5
v -0.5 0.2 0.5
v -0.3 0.2 0.5
v -0.1 0.2 0.5
v -0.7 0.2 0.4
v -0.5 0.2 0.4
v -0.3 0.2 0.4
v -0.1 0.2 0.4
v -0.8 0.2 0.3
v -0.7 0.2 0.3
v -0.5 0.2 0.3
v -0.3 0.2 0.3
v -0.1 0.2 0.3
v 0 0.2 0.3
v -0.9 0.2 0.2
v -0.8 0.2 0.2
v -0.7 0.2 0.2
v -0.5 0.2 0.2
v -0.3 0.2 0.2
v -0.1 0.2 0.2
v 0 0.2 0.2
v 0.1 0.2 0.2
v -0.5 0.2 0.1
v -0.3 0.2 0.1
v -0.9 0.2 0
v -0.8 0.2 0
v 0 0.2 0
v 0.1 0.2 0
v -0.5 0.2 -0.1
v -0.3 0.2 -0.1
v -0.7 0.4 1
v -0.5 0.4 1
v -0.3 0.4 1
v -0.1 0.4 1
v -0.7 0.4 0.9
v -0.5 0.4 0.9
v -0.3 0.4 0.9
v -0.1 0.4 0.9
v -0.7 0.4 0.8
v -0.5 0.4 0.8
v -0.3 0.4 0.8
v -0.1 0.4 0.8
v -0.7 0.4 0.7
v -0.5 0.4 0.7
v -0.3 0.4 0.7
v -0.1 0.4 0.7
v -0.7 0.4 0.6
v -0.5 0.4 0.6
v -0.3 0.4 0.6
v -0.1 0.4 0.6
v -0.7 0.4 0.5
v -0.5 0.4 0.5
v -0.3 0.4 0.5
v -0.1 0.4 0.5
v -0.7 0.4 0.4
v -0.5 0.4 0.4
v -0.3 0.4 0.4
v -0.1 0.4 0.4
v -0.8 0.4 0.3
v -0.7 0.4 0.3
v -0.5 0.4 0.3
v -0.3 0.4 0.3
v -0.1 0.4 0.3
v 0 0.4 0.3
v -0.9 0.4 0.2
v -0.8 0.4 0.2
v -0.7 0.4 0.2
v -0.5 0.4 0.2
v -0.3 0.4 0.2
v -0.1 0.4 0.2
v 0 0.4 0.2
v 0.1 0.4 0.2
v -0.9 0.4 0
v -0.8 0.4 0
v 0 0.4 0
v 0.1 0.4 0
v -0.8 0.4 -0.1
v -0.7 0.4 -0.1
v -0.1 0.4 -0.1
v 0 0.4 -0.1
v -0.8 0.4 -0.2
v -0.7 0.4 -0.2
v -0.1 0.4 -0.2
v 0 0.4 -0.2
v -0.7 0.4 -0.3
v -0.1 0.4 -0.3
v -0.7 0.5 0.3
v -0.5 0.5 0.3
v -0.3 0.5 0.3
v -0.1 0.5 0.3
v -0.8 0.5 0.2
v -0.7 0.5 0.2
v -0.5 0.5 0.2
v -0.3 0.5 0.2
v -0.1 0.5 0.2
v 0 0.5 0.2
v -0.7 0.5 0
v -0.1 0.5 0
v -0.8 0.5 -0.1
v -0.7 0.5 -0.1
v -0.1 0.5 -0.1
v 0 0.5 -0.1
v -0.7 0.5 -0.2
v -0.1 0.5 -0.2
v -0.7 0.6 0.2
v -0.1 0.6 0.2
v -0.7 0.6 0
v -0.1 0.6 0

# faces
f 3/3/1 2/3/1 1/3/1
f 4/3/1 2/3/1 3/3/1
f 8/3/1 6/3/1 5/3/1
f 9/3/1 6/3/1 8/3/1
f 12/3/1 8/3/1 7/3/1
f 12/3/1 10/3/1 9/3/1
f 12/3/1 9/3/1 8/3/1
f 13/3/1 10/3/1 12/3/1
f 14/4/1 12/4/1 11/4/1
f 15/4/1 12/4/1 14/4/1
f 16/3/1 10/3/1 13/3/1
f 17/3/1 10/3/1 16/3/1
f 18/3/1 10/3/1 17/3/1
f 19/3/1 16/3/1 15/3/1
f 19/3/1 17/3/1 16/3/1
f 20/3/1 17/3/1 19/3/1
f 26/3/1 22/3/1 21/3/1
f 27/3/1 22/3/1 26/3/1
f 28/3/1 24/3/1 23/3/1
f 29/3/1 24/3/1 28/3/1
f 38/4/1 26/4/1 25/4/1
f 39/4/1 26/4/1 38/4/1
f 40/4/1 32/4/1 31/4/1
f 41/2/1 33/2/1 32/2/1
f 41/4/1 32/4/1 40/4/1
f 42/1/1 34/1/1 33/1/1
f 42/2/1 33/2/1 41/2/1
f 43/2/1 35/2/1 34/2/1
f 43/1/1 34/1/1 42/1/1
f 44/1/1 36/1/1 35/1/1
f 44/2/1 35/2/1 43/2/1
f 45/2/1 37/2/1 36/2/1
f 45/1/1 36/1/1 44/1/1
f 46/1/1 38/1/1 37/1/1
f 46/2/1 37/2/1 45/2/1
f 47/1/1 38/1/1 46/1/1
f 50/3/1 30/3/1 29/3/1
f 51/3/1 30/3/1 50/3/1
f 52/4/1 48/4/1 47/4/1
f 53/4/1 48/4/1 52/4/1
f 55/3/1 50/3/1 49/3/1
f 56/3/1 50/3/1 55/3/1
f 57/3/1 54/3/1 53/3/1
f 58/3/1 54/3/1 57/3/1
f 70/4/1 62/4/1 61/4/1
f 71/4/1 62/4/1 70/4/1
f 72/3/1 60/3/1 59/3/1
f 73/3/1 60/3/1 72/3/1
f 74/4/1 64/4/1 63/4/1
f 75/2/1 65/2/1 64/2/1
f 75/4/1 64/4/1 74/4/1
f 76/1/1 66/1/1 65/1/1
f 76/2/1 65/2/1 75/2/1
f 77/2/1 67/2/1 66/2/1
f 77/1/1 66/1/1 76/1/1
f 78/1/1 68/1/1 67/1/1
f 78/2/1 67/2/1 77/2/1
f 79/2/1 69/2/1 68/2/1
f 79/1/1 68/1/1 78/1/1
f 80/1/1 70/1/1 69/1/1
f 80/2/1 69/2/1 79/2/1
f 81/1/1 70/1/1 80/1/1
f 83/4/1 82/4/1 81/4/1
f 84/4/1 82/4/1 83/4/1
f 87/4/2 88/4/2 96/4/2
f 96/4/2 88/4/2 97/4/2
f 85/3/2 86/3/2 98/3/2
f 98/3/2 86/3/2 99/3/2
f 89/4/2 90/4/2 100/4/2
f 90/2/2 91/2/2 101/2/2
f 100/4/2 90/4/2 101/4/2
f 91/1/2 92/1/2 102/1/2
f 101/2/2 91/2/2 102/2/2
f 92/2/2 93/2/2 103/2/2
f 102/1/2 92/1/2 103/1/2
f 93/1/2 94/1/2 104/1/2
f 103/2/2 93/2/2 104/2/2
f 94/2/2 95/2/2 105/2/2
f 104/1/2 94/1/2 105/1/2
f 95/1/2 96/1/2 106/1/2
f 105/2/2 95/2/2 106/2/2
f 106/1/2 96/1/2 107/1/2
f 107/4/2 108/4/2 109/4/2
f 109/4/2 108/4/2 110/4/2
f 111/3/2 112/3/2 116/3/2
f 116/3/2 112/3/2 117/3/2
f 113/3/2 114/3/2 118/3/2
f 118/3/2 114/3/2 119/3/2
f 115/4/2 116/4/2 128/4/2
f 128/4/2 116/4/2 129/4/2
f 121/4/2 122/4/2 130/4/2
f 122/2/2 123/2/2 131/2/2
f 130/4/2 122/4/2 131/4/2
f 123/1/2 124/1/2 132/1/2
f 131/2/2 123/2/2 132/2/2
f 124/2/2 125/2/2 133/2/2
f 132/1/2 124/1/2 133/1/2
f 125/1/2 126/1/2 134/1/2
f 133/2/2 125/2/2 134/2/2
f 126/2/2 127/2/2 135/2/2
f 134/1/2 126/1/2 135/1/2
f 127/1/2 128/1/2 136/1/2
f 135/2/2 127/2/2 136/2/2
f 136/1/2 128/1/2 137/1/2
f 119/3/2 120/3/2 140/3/2
f 140/3/2 120/3/2 141/3/2
f 137/4/2 138/4/2 142/4/2
f 142/4/2 138/4/2 143/4/2
f 139/3/2 140/3/2 145/3/2
f 145/3/2 140/3/2 146/3/2
f 143/3/2 144/3/2 147/3/2
f 147/3/2 144/3/2 148/3/2
f 149/3/2 150/3/2 152/3/2
f 152/3/2 150/3/2 153/3/2
f 151/3/2 152/3/2 156/3/2
f 153/3/2 154/3/2 156/3/2
f 152/3/2 153/3/2 156/3/2
f 156/3/2 154/3/2 157/3/2
f 155/4/2 156/4/2 158/4/2
f 158/4/2 156/4/2 159/4/2
f 157/3/2 154/3/2 160/3/2
f 160/3/2 154/3/2 161/3/2
f 161/3/2 154/3/2 162/3/2
f 159/3/2 160/3/2 163/3/2
f 160/3/2 161/3/2 163/3/2
f 163/3/2 161/3/2 164/3/2
f 165/3/2 166/3/2 167/3/2
f 167/3/2 166/3/2 168/3/2
f 171/4/3 170/4/3 169/4/3
f 172/4/3 170/4/3 171/4/3
f 175/4/3 174/4/3 173/4/3
f 176/4/3 174/4/3 175/4/3
f 180/4/3 178/4/3 177/4/3
f 181/4/3 178/4/3 180/4/3
f 183/4/3 180/4/3 179/4/3
f 184/4/3 180/4/3 183/4/3
f 185/4/3 182/4/3 181/4/3
f 186/4/3 182/4/3 185/4/3
f 188/4/3 185/4/3 184/4/3
f 189/4/3 185/4/3 188/4/3
f 191/4/3 188/4/3 187/4/3
f 192/4/3 188/4/3 191/4/3
f 193/4/3 190/4/3 189/4/3
f 194/4/3 190/4/3 193/4/3
f 195/4/3 193/4/3 192/4/3
f 196/4/3 193/4/3 195/4/3
f 200/3/3 198/3/3 197/3/3
f 201/3/3 198/3/3 200/3/3
f 204/3/3 200/3/3 199/3/3
f 205/3/3 200/3/3 204/3/3
f 206/3/3 202/3/3 201/3/3
f 207/3/3 202/3/3 206/3/3
f 209/3/3 204/3/3 203/3/3
f 212/3/3 208/3/3 207/3/3
f 213/3/3 210/3/3 209/3/3
f 213/3/3 209/3/3 203/3/3
f 214/3/3 210/3/3 213/3/3
f 215/3/3 212/3/3 211/3/3
f 216/3/3 208/3/3 212/3/3
f 216/3/3 212/3/3 215/3/3
f 217/3/3 213/3/3 203/3/3
f 218/3/3 213/3/3 217/3/3
f 221/3/3 208/3/3 216/3/3
f 222/3/3 208/3/3 221/3/3
f 223/3/3 219/3/3 218/3/3
f 224/3/3 219/3/3 223/3/3
f 225/3/3 221/3/3 220/3/3
f 226/3/3 221/3/3 225/3/3
f 227/3/3 225/3/3 224/3/3
f 228/3/3 225/3/3 227/3/3
f 231/3/3 230/3/3 229/3/3
f 232/3/3 230/3/3 231/3/3
f 235/3/3 234/3/3 233/3/3
f 236/3/3 234/3/3 235/3/3
f 239/3/3 238/3/3 237/3/3
f 240/3/3 238/3/3 239/3/3
f 241/3/4 242/3/4 243/3/4
f 243/3/4 242/3/4 244/3/4
f 245/3/4 246/3/4 247/3/4
f 247/3/4 246/3/4 248/3/4
f 249/3/4 250/3/4 251/3/4
f 251/3/4 250/3/4 252/3/4
f 253/3/4 254/3/4 255/3/4
f 255/3/4 254/3/4 256/3/4
f 257/3/4 258/3/4 261/3/4
f 261/3/4 258/3/4 262/3/4
f 259/3/4 260/3/4 263/3/4
f 263/3/4 260/3/4 264/3/4
f 265/3/4 266/3/4 269/3/4
f 269/3/4 266/3/4 270/3/4
f 267/3/4 268/3/4 271/3/4
f 271/3/4 268/3/4 272/3/4
f 273/3/4 274/3/4 276/3/4
f 276/3/4 274/3/4 277/3/4
f 275/3/4 276/3/4 279/3/4
f 279/3/4 276/3/4 280/3/4
f 277/3/4 278/3/4 281/3/4
f 281/3/4 278/3/4 282/3/4
f 280/3/4 281/3/4 283/3/4
f 283/3/4 281/3/4 284/3/4
f 285/3/4 286/3/4 287/3/4
f 287/3/4 286/3/4 288/3/4
f 292/3/5 290/3/5 289/3/5
f 293/3/5 290/3/5 292/3/5
f 294/3/5 290/3/5 293/3/5
f 295/3/5 290/3/5 294/3/5
f 297/3/5 292/3/5 291/3/5
f 297/3/5 293/3/5 292/3/5
f 298/3/5 293/3/5 297/3/5
f 299/3/5 293/3/5 298/3/5
f 300/3/5 296/3/5 295/3/5
f 300/3/5 295/3/5 294/3/5
f 301/3/5 296/3/5 300/3/5
f 302/3/5 296/3/5 301/3/5
f 303/3/5 299/3/5 298/3/5
f 303/3/5 301/3/5 300/3/5
f 303/3/5 300/3/5 299/3/5
f 304/3/5 301/3/5 303/3/5
f 310/4/5 306/4/5 305/4/5
f 311/4/5 306/4/5 310/4/5
f 312/4/5 308/4/5 307/4/5
f 313/4/5 308/4/5 312/4/5
f 315/3/5 310/3/5 309/3/5
f 316/3/5 310/3/5 315/3/5
f 317/3/5 314/3/5 313/3/5
f 318/3/5 314/3/5 317/3/5
f 323/3/5 320/3/5 319/3/5
f 324/3/5 320/3/5 323/3/5
f 325/3/5 322/3/5 321/3/5
f 326/3/5 322/3/5 325/3/5
f 327/3/5 325/3/5 324/3/5
f 328/3/5 325/3/5 327/3/5
f 333/4/5 330/4/5 329/4/5
f 334/4/5 330/4/5 333/4/5
f 335/4/5 332/4/5 331/4/5
f 336/4/5 332/4/5 335/4/5
f 337/2/5 334/2/5 333/2/5
f 338/2/5 334/2/5 337/2/5
f 339/2/5 336/2/5 335/2/5
f 340/2/5 336/2/5 339/2/5
f 341/1/5 338/1/5 337/1/5
f 342/1/5 338/1/5 341/1/5
f 343/1/5 340/1/5 339/1/5
f 344/1/5 340/1/5 343/1/5
f 345/2/5 342/2/5 341/2/5
f 346/2/5 342/2/5 345/2/5
f 347/2/5 344/2/5 343/2/5
f 348/2/5 344/2/5 347/2/5
f 349/1/5 346/1/5 345/1/5
f 350/1/5 346/1/5 349/1/5
f 351/1/5 348/1/5 347/1/5
f 352/1/5 348/1/5 351/1/5
f 353/2/5 350/2/5 349/2/5
f 354/2/5 350/2/5 353/2/5
f 355/2/5 352/2/5 351/2/5
f 356/2/5 352/2/5 355/2/5
f 358/1/5 354/1/5 353/1/5
f 359/1/5 354/1/5 358/1/5
f 360/1/5 356/1/5 355/1/5
f 361/1/5 356/1/5 360/1/5
f 364/4/5 358/4/5 357/4/5
f 365/4/5 358/4/5 364/4/5
f 366/4/5 360/4/5 359/4/5
f 367/4/5 360/4/5 366/4/5
f 368/4/5 362/4/5 361/4/5
f 369/4/5 362/4/5 368/4/5
f 373/3/5 364/3/5 363/3/5
f 374/3/5 364/3/5 373/3/5
f 375/3/5 370/3/5 369/3/5
f 376/3/5 370/3/5 375/3/5
f 377/3/5 372/3/5 371/3/5
f 378/3/5 372/3/5 377/3/5
f 379/4/6 380/4/6 383/4/6
f 383/4/6 380/4/6 384/4/6
f 381/4/6 382/4/6 385/4/6
f 385/4/6 382/4/6 386/4/6
f 383/2/6 384/2/6 387/2/6
f 387/2/6 384/2/6 388/2/6
f 385/2/6 386/2/6 389/2/6
f 389/2/6 386/2/6 390/2/6
f 387/1/6 388/1/6 391/1/6
f 391/1/6 388/1/6 392/1/6
f 389/1/6 390/1/6 393/1/6
f 393/1/6 390/1/6 394/1/6
f 391/2/6 392/2/6 395/2/6
f 395/2/6 392/2/6 396/2/6
f 393/2/6 394/2/6 397/2/6
f 397/2/6 394/2/6 398/2/6
f 395/1/6 396/1/6 399/1/6
f 399/1/6 396/1/6 400/1/6
f 397/1/6 398/1/6 401/1/6
f 401/1/6 398/1/6 402/1/6
f 399/2/6 400/2/6 403/2/6
f 403/2/6 400/2/6 404/2/6
f 401/2/6 402/2/6 405/2/6
f 405/2/6 402/2/6 406/2/6
f 403/1/6 404/1/6 408/1/6
f 408/1/6 404/1/6 409/1/6
f 405/1/6 406/1/6 410/1/6
f 410/1/6 406/1/6 411/1/6
f 407/4/6 408/4/6 414/4/6
f 414/4/6 408/4/6 415/4/6
f 409/4/6 410/4/6 416/4/6
f 416/4/6 410/4/6 417/4/6
f 411/4/6 412/4/6 418/4/6
f 418/4/6 412/4/6 419/4/6
f 413/3/6 414/3/6 421/3/6
f 421/3/6 414/3/6 422/3/6
f 419/3/6 420/3/6 423/3/6
f 423/3/6 420/3/6 424/3/6
f 425/3/6 426/3/6 429/3/6
f 429/3/6 426/3/6 430/3/6
f 427/3/6 428/3/6 431/3/6
f 431/3/6 428/3/6 432/3/6
f 430/3/6 431/3/6 433/3/6
f 433/3/6 431/3/6 434/3/6
f 435/4/6 436/4/6 440/4/6
f 440/4/6 436/4/6 441/4/6
f 437/4/6 438/4/6 442/4/6
f 442/4/6 438/4/6 443/4/6
f 439/3/6 440/3/6 445/3/6
f 443/3/6 444/3/6 446/3/6
f 439/3/6 445/3/6 447/3/6
f 445/3/6 446/3/6 447/3/6
f 447/3/6 446/3/6 448/3/6
f 446/3/6 444/3/6 449/3/6
f 448/3/6 446/3/6 449/3/6
f 449/3/6 444/3/6 450/3/6
f 448/3/6 449/3/6 451/3/6
f 451/3/6 449/3/6 452/3/6
f 453/3/6 454/3/6 455/3/6
f 455/3/6 454/3/6 456/3/6
