# MagicaVoxel @ Ephtracy

# group
o 

# material
mtllib pipe.mtl
usemtl palette

# normals
vn -1 0 0
vn 1 0 0
vn 0 0 1
vn 0 0 -1
vn 0 -1 0
vn 0 1 0

# texcoords
vt 0.923828 0.5
vt 0.927734 0.5
vt 0.990234 0.5

# verts
v -0.5 0.1 0.0999999
v -0.5 0.1 -0.1
v -0.5 0.3 0.0999999
v -0.5 0.3 -0.1
v -0.4 0 0.0999999
v -0.4 0 -0.1
v -0.4 0.1 0.2
v -0.4 0.1 0.0999999
v -0.4 0.1 -0.1
v -0.4 0.1 -0.2
v -0.4 0.3 0.2
v -0.4 0.3 0.0999999
v -0.4 0.3 -0.1
v -0.4 0.3 -0.2
v -0.4 0.4 0.0999999
v -0.4 0.4 -0.1
v -0.3 0.1 0.0999999
v -0.3 0.1 -0.1
v -0.3 0.3 0.0999999
v -0.3 0.3 -0.1
v 0.1 0 0.0999999
v 0.1 0 -0.1
v 0.1 0.1 0.2
v 0.1 0.1 0.0999999
v 0.1 0.1 -0.1
v 0.1 0.1 -0.2
v 0.1 0.3 0.2
v 0.1 0.3 0.0999999
v 0.1 0.3 -0.1
v 0.1 0.3 -0.2
v 0.1 0.4 0.0999999
v 0.1 0.4 -0.1
v -0.4 0.1 0.2
v -0.4 0.3 0.2
v 0 0.1 0.2
v 0 0.3 0.2
v 0.1 0.1 0.2
v 0.1 0.3 0.2
v -0.5 0.1 0.0999999
v -0.5 0.3 0.0999999
v -0.4 0 0.0999999
v -0.4 0.1 0.0999999
v -0.4 0.3 0.0999999
v -0.4 0.4 0.0999999
v 0 0 0.0999999
v 0 0.1 0.0999999
v 0 0.3 0.0999999
v 0 0.4 0.0999999
v 0.1 0 0.0999999
v 0.1 0.1 0.0999999
v 0.1 0.3 0.0999999
v 0.1 0.4 0.0999999
v -0.3 0.1 -0.1
v -0.3 0.3 -0.1
v 0 0.1 -0.1
v 0 0.3 -0.1
v 0.1 0.1 -0.1
v 0.1 0.3 -0.1
v -0.3 0.1 0.0999999
v -0.3 0.3 0.0999999
v 0 0.1 0.0999999
v 0 0.3 0.0999999
v 0.1 0.1 0.0999999
v 0.1 0.3 0.0999999
v -0.5 0.1 -0.1
v -0.5 0.3 -0.1
v -0.4 0 -0.1
v -0.4 0.1 -0.1
v -0.4 0.3 -0.1
v -0.4 0.4 -0.1
v 0 0 -0.1
v 0 0.1 -0.1
v 0 0.3 -0.1
v 0 0.4 -0.1
v 0.1 0 -0.1
v 0.1 0.1 -0.1
v 0.1 0.3 -0.1
v 0.1 0.4 -0.1
v -0.4 0.1 -0.2
v -0.4 0.3 -0.2
v 0 0.1 -0.2
v 0 0.3 -0.2
v 0.1 0.1 -0.2
v 0.1 0.3 -0.2
v -0.4 0 0.0999999
v 0 0 0.0999999
v 0.1 0 0.0999999
v -0.4 0 -0.1
v 0 0 -0.1
v 0.1 0 -0.1
v -0.4 0.1 0.2
v 0 0.1 0.2
v 0.1 0.1 0.2
v -0.5 0.1 0.0999999
v -0.4 0.1 0.0999999
v 0 0.1 0.0999999
v 0.1 0.1 0.0999999
v -0.5 0.1 -0.1
v -0.4 0.1 -0.1
v 0 0.1 -0.1
v 0.1 0.1 -0.1
v -0.4 0.1 -0.2
v 0 0.1 -0.2
v 0.1 0.1 -0.2
v -0.3 0.3 0.0999999
v 0 0.3 0.0999999
v 0.1 0.3 0.0999999
v -0.3 0.3 -0.1
v 0 0.3 -0.1
v 0.1 0.3 -0.1
v -0.3 0.1 0.0999999
v 0 0.1 0.0999999
v 0.1 0.1 0.0999999
v -0.3 0.1 -0.1
v 0 0.1 -0.1
v 0.1 0.1 -0.1
v -0.4 0.3 0.2
v 0 0.3 0.2
v 0.1 0.3 0.2
v -0.5 0.3 0.0999999
v -0.4 0.3 0.0999999
v 0 0.3 0.0999999
v 0.1 0.3 0.0999999
v -0.5 0.3 -0.1
v -0.4 0.3 -0.1
v 0 0.3 -0.1
v 0.1 0.3 -0.1
v -0.4 0.3 -0.2
v 0 0.3 -0.2
v 0.1 0.3 -0.2
v -0.4 0.4 0.0999999
v 0 0.4 0.0999999
v 0.1 0.4 0.0999999
v -0.4 0.4 -0.1
v 0 0.4 -0.1
v 0.1 0.4 -0.1

# faces
f 3/2/1 2/2/1 1/2/1
f 4/2/1 2/2/1 3/2/1
f 8/2/1 6/2/1 5/2/1
f 9/2/1 6/2/1 8/2/1
f 11/2/1 8/2/1 7/2/1
f 12/2/1 8/2/1 11/2/1
f 13/2/1 10/2/1 9/2/1
f 14/2/1 10/2/1 13/2/1
f 15/2/1 13/2/1 12/2/1
f 16/2/1 13/2/1 15/2/1
f 17/3/2 18/3/2 19/3/2
f 19/3/2 18/3/2 20/3/2
f 21/1/2 22/1/2 24/1/2
f 24/1/2 22/1/2 25/1/2
f 23/1/2 24/1/2 27/1/2
f 27/1/2 24/1/2 28/1/2
f 25/1/2 26/1/2 29/1/2
f 29/1/2 26/1/2 30/1/2
f 28/1/2 29/1/2 31/1/2
f 31/1/2 29/1/2 32/1/2
f 35/2/3 34/2/3 33/2/3
f 36/2/3 34/2/3 35/2/3
f 37/1/3 36/1/3 35/1/3
f 38/1/3 36/1/3 37/1/3
f 42/2/3 40/2/3 39/2/3
f 43/2/3 40/2/3 42/2/3
f 45/2/3 42/2/3 41/2/3
f 46/2/3 42/2/3 45/2/3
f 47/2/3 44/2/3 43/2/3
f 48/2/3 44/2/3 47/2/3
f 49/1/3 46/1/3 45/1/3
f 50/1/3 46/1/3 49/1/3
f 51/1/3 48/1/3 47/1/3
f 52/1/3 48/1/3 51/1/3
f 55/2/3 54/2/3 53/2/3
f 56/2/3 54/2/3 55/2/3
f 57/1/3 56/1/3 55/1/3
f 58/1/3 56/1/3 57/1/3
f 59/2/4 60/2/4 61/2/4
f 61/2/4 60/2/4 62/2/4
f 61/1/4 62/1/4 63/1/4
f 63/1/4 62/1/4 64/1/4
f 65/2/4 66/2/4 68/2/4
f 68/2/4 66/2/4 69/2/4
f 67/2/4 68/2/4 71/2/4
f 71/2/4 68/2/4 72/2/4
f 69/2/4 70/2/4 73/2/4
f 73/2/4 70/2/4 74/2/4
f 71/1/4 72/1/4 75/1/4
f 75/1/4 72/1/4 76/1/4
f 73/1/4 74/1/4 77/1/4
f 77/1/4 74/1/4 78/1/4
f 79/2/4 80/2/4 81/2/4
f 81/2/4 80/2/4 82/2/4
f 81/1/4 82/1/4 83/1/4
f 83/1/4 82/1/4 84/1/4
f 88/2/5 86/2/5 85/2/5
f 89/1/5 87/1/5 86/1/5
f 89/2/5 86/2/5 88/2/5
f 90/1/5 87/1/5 89/1/5
f 95/2/5 92/2/5 91/2/5
f 96/1/5 93/1/5 92/1/5
f 96/2/5 92/2/5 95/2/5
f 97/1/5 93/1/5 96/1/5
f 98/2/5 95/2/5 94/2/5
f 99/2/5 95/2/5 98/2/5
f 102/2/5 100/2/5 99/2/5
f 103/1/5 101/1/5 100/1/5
f 103/2/5 100/2/5 102/2/5
f 104/1/5 101/1/5 103/1/5
f 108/2/5 106/2/5 105/2/5
f 109/1/5 107/1/5 106/1/5
f 109/2/5 106/2/5 108/2/5
f 110/1/5 107/1/5 109/1/5
f 111/2/6 112/2/6 114/2/6
f 112/1/6 113/1/6 115/1/6
f 114/2/6 112/2/6 115/2/6
f 115/1/6 113/1/6 116/1/6
f 117/2/6 118/2/6 121/2/6
f 118/1/6 119/1/6 122/1/6
f 121/2/6 118/2/6 122/2/6
f 122/1/6 119/1/6 123/1/6
f 120/2/6 121/2/6 124/2/6
f 124/2/6 121/2/6 125/2/6
f 125/2/6 126/2/6 128/2/6
f 126/1/6 127/1/6 129/1/6
f 128/2/6 126/2/6 129/2/6
f 129/1/6 127/1/6 130/1/6
f 131/2/6 132/2/6 134/2/6
f 132/1/6 133/1/6 135/1/6
f 134/2/6 132/2/6 135/2/6
f 135/1/6 133/1/6 136/1/6
