# MagicaVoxel @ Ephtracy

# group
o 

# material
mtllib fencePost.mtl
usemtl palette

# normals
vn -1 0 0
vn 1 0 0
vn 0 0 1
vn 0 0 -1
vn 0 -1 0
vn 0 1 0

# texcoords
vt 0.923828 0.5
vt 0.931641 0.5
vt 0.935547 0.5

# verts
v -0.3 0.6 0.3
v -0.3 0.6 -0.3
v -0.3 0.7 0.2
v -0.3 0.7 -0.2
v -0.3 1.1 0.2
v -0.3 1.1 -0.2
v -0.3 1.2 0.3
v -0.3 1.2 -0.3
v -0.3 2 0.3
v -0.3 2 -0.3
v -0.3 2.1 0.2
v -0.3 2.1 -0.2
v -0.3 2.5 0.2
v -0.3 2.5 -0.2
v -0.3 2.6 0.3
v -0.3 2.6 -0.3
v -0.2 0 0.2
v -0.2 0 -0.2
v -0.2 0.6 0.2
v -0.2 0.6 -0.2
v -0.2 0.7 0.2
v -0.2 0.7 -0.2
v -0.2 1.1 0.2
v -0.2 1.1 -0.2
v -0.2 1.2 0.2
v -0.2 1.2 -0.2
v -0.2 2 0.2
v -0.2 2 -0.2
v -0.2 2.1 0.2
v -0.2 2.1 -0.2
v -0.2 2.5 0.2
v -0.2 2.5 -0.2
v -0.2 2.6 0.2
v -0.2 2.6 -0.2
v -0.2 2.8 0.2
v -0.2 2.8 -0.2
v 0.2 0.7 0.3
v 0.2 0.7 0.2
v 0.2 0.7 -0.2
v 0.2 0.7 -0.3
v 0.2 1.1 0.3
v 0.2 1.1 0.2
v 0.2 1.1 -0.2
v 0.2 1.1 -0.3
v 0.2 2.1 0.3
v 0.2 2.1 0.2
v 0.2 2.1 -0.2
v 0.2 2.1 -0.3
v 0.2 2.5 0.3
v 0.2 2.5 0.2
v 0.2 2.5 -0.2
v 0.2 2.5 -0.3
v -0.2 0.7 0.3
v -0.2 0.7 0.2
v -0.2 0.7 -0.2
v -0.2 0.7 -0.3
v -0.2 1.1 0.3
v -0.2 1.1 0.2
v -0.2 1.1 -0.2
v -0.2 1.1 -0.3
v -0.2 2.1 0.3
v -0.2 2.1 0.2
v -0.2 2.1 -0.2
v -0.2 2.1 -0.3
v -0.2 2.5 0.3
v -0.2 2.5 0.2
v -0.2 2.5 -0.2
v -0.2 2.5 -0.3
v 0.2 0 0.2
v 0.2 0 -0.2
v 0.2 0.6 0.2
v 0.2 0.6 -0.2
v 0.2 0.7 0.2
v 0.2 0.7 -0.2
v 0.2 1.1 0.2
v 0.2 1.1 -0.2
v 0.2 1.2 0.2
v 0.2 1.2 -0.2
v 0.2 2 0.2
v 0.2 2 -0.2
v 0.2 2.1 0.2
v 0.2 2.1 -0.2
v 0.2 2.5 0.2
v 0.2 2.5 -0.2
v 0.2 2.6 0.2
v 0.2 2.6 -0.2
v 0.2 2.8 0.2
v 0.2 2.8 -0.2
v 0.3 0.6 0.3
v 0.3 0.6 -0.3
v 0.3 0.7 0.2
v 0.3 0.7 -0.2
v 0.3 1.1 0.2
v 0.3 1.1 -0.2
v 0.3 1.2 0.3
v 0.3 1.2 -0.3
v 0.3 2 0.3
v 0.3 2 -0.3
v 0.3 2.1 0.2
v 0.3 2.1 -0.2
v 0.3 2.5 0.2
v 0.3 2.5 -0.2
v 0.3 2.6 0.3
v 0.3 2.6 -0.3
v -0.3 0.6 0.3
v -0.3 1.2 0.3
v -0.3 2 0.3
v -0.3 2.6 0.3
v -0.2 0.7 0.3
v -0.2 1.1 0.3
v -0.2 2.1 0.3
v -0.2 2.5 0.3
v 0.2 0.7 0.3
v 0.2 1.1 0.3
v 0.2 2.1 0.3
v 0.2 2.5 0.3
v 0.3 0.6 0.3
v 0.3 1.2 0.3
v 0.3 2 0.3
v 0.3 2.6 0.3
v -0.2 0 0.2
v -0.2 0.6 0.2
v -0.2 0.7 0.2
v -0.2 1.1 0.2
v -0.2 1.2 0.2
v -0.2 2 0.2
v -0.2 2.1 0.2
v -0.2 2.5 0.2
v -0.2 2.6 0.2
v -0.2 2.8 0.2
v 0.2 0 0.2
v 0.2 0.6 0.2
v 0.2 0.7 0.2
v 0.2 1.1 0.2
v 0.2 1.2 0.2
v 0.2 2 0.2
v 0.2 2.1 0.2
v 0.2 2.5 0.2
v 0.2 2.6 0.2
v 0.2 2.8 0.2
v -0.3 0.7 -0.2
v -0.3 1.1 -0.2
v -0.3 2.1 -0.2
v -0.3 2.5 -0.2
v -0.2 0.7 -0.2
v -0.2 1.1 -0.2
v -0.2 2.1 -0.2
v -0.2 2.5 -0.2
v 0.2 0.7 -0.2
v 0.2 1.1 -0.2
v 0.2 2.1 -0.2
v 0.2 2.5 -0.2
v 0.3 0.7 -0.2
v 0.3 1.1 -0.2
v 0.3 2.1 -0.2
v 0.3 2.5 -0.2
v -0.3 0.7 0.2
v -0.3 1.1 0.2
v -0.3 2.1 0.2
v -0.3 2.5 0.2
v -0.2 0.7 0.2
v -0.2 1.1 0.2
v -0.2 2.1 0.2
v -0.2 2.5 0.2
v 0.2 0.7 0.2
v 0.2 1.1 0.2
v 0.2 2.1 0.2
v 0.2 2.5 0.2
v 0.3 0.7 0.2
v 0.3 1.1 0.2
v 0.3 2.1 0.2
v 0.3 2.5 0.2
v -0.2 0 -0.2
v -0.2 0.6 -0.2
v -0.2 0.7 -0.2
v -0.2 1.1 -0.2
v -0.2 1.2 -0.2
v -0.2 2 -0.2
v -0.2 2.1 -0.2
v -0.2 2.5 -0.2
v -0.2 2.6 -0.2
v -0.2 2.8 -0.2
v 0.2 0 -0.2
v 0.2 0.6 -0.2
v 0.2 0.7 -0.2
v 0.2 1.1 -0.2
v 0.2 1.2 -0.2
v 0.2 2 -0.2
v 0.2 2.1 -0.2
v 0.2 2.5 -0.2
v 0.2 2.6 -0.2
v 0.2 2.8 -0.2
v -0.3 0.6 -0.3
v -0.3 1.2 -0.3
v -0.3 2 -0.3
v -0.3 2.6 -0.3
v -0.2 0.7 -0.3
v -0.2 1.1 -0.3
v -0.2 2.1 -0.3
v -0.2 2.5 -0.3
v 0.2 0.7 -0.3
v 0.2 1.1 -0.3
v 0.2 2.1 -0.3
v 0.2 2.5 -0.3
v 0.3 0.6 -0.3
v 0.3 1.2 -0.3
v 0.3 2 -0.3
v 0.3 2.6 -0.3
v -0.2 0 0.2
v 0.2 0 0.2
v -0.2 0 -0.2
v 0.2 0 -0.2
v -0.3 0.6 0.3
v 0.3 0.6 0.3
v -0.2 0.6 0.2
v 0.2 0.6 0.2
v -0.2 0.6 -0.2
v 0.2 0.6 -0.2
v -0.3 0.6 -0.3
v 0.3 0.6 -0.3
v -0.2 1.1 0.3
v 0.2 1.1 0.3
v -0.3 1.1 0.2
v -0.2 1.1 0.2
v 0.2 1.1 0.2
v 0.3 1.1 0.2
v -0.3 1.1 -0.2
v -0.2 1.1 -0.2
v 0.2 1.1 -0.2
v 0.3 1.1 -0.2
v -0.2 1.1 -0.3
v 0.2 1.1 -0.3
v -0.3 2 0.3
v 0.3 2 0.3
v -0.2 2 0.2
v 0.2 2 0.2
v -0.2 2 -0.2
v 0.2 2 -0.2
v -0.3 2 -0.3
v 0.3 2 -0.3
v -0.2 2.5 0.3
v 0.2 2.5 0.3
v -0.3 2.5 0.2
v -0.2 2.5 0.2
v 0.2 2.5 0.2
v 0.3 2.5 0.2
v -0.3 2.5 -0.2
v -0.2 2.5 -0.2
v 0.2 2.5 -0.2
v 0.3 2.5 -0.2
v -0.2 2.5 -0.3
v 0.2 2.5 -0.3
v -0.2 0.7 0.3
v 0.2 0.7 0.3
v -0.3 0.7 0.2
v -0.2 0.7 0.2
v 0.2 0.7 0.2
v 0.3 0.7 0.2
v -0.3 0.7 -0.2
v -0.2 0.7 -0.2
v 0.2 0.7 -0.2
v 0.3 0.7 -0.2
v -0.2 0.7 -0.3
v 0.2 0.7 -0.3
v -0.3 1.2 0.3
v 0.3 1.2 0.3
v -0.2 1.2 0.2
v 0.2 1.2 0.2
v -0.2 1.2 -0.2
v 0.2 1.2 -0.2
v -0.3 1.2 -0.3
v 0.3 1.2 -0.3
v -0.2 2.1 0.3
v 0.2 2.1 0.3
v -0.3 2.1 0.2
v -0.2 2.1 0.2
v 0.2 2.1 0.2
v 0.3 2.1 0.2
v -0.3 2.1 -0.2
v -0.2 2.1 -0.2
v 0.2 2.1 -0.2
v 0.3 2.1 -0.2
v -0.2 2.1 -0.3
v 0.2 2.1 -0.3
v -0.3 2.6 0.3
v 0.3 2.6 0.3
v -0.2 2.6 0.2
v 0.2 2.6 0.2
v -0.2 2.6 -0.2
v 0.2 2.6 -0.2
v -0.3 2.6 -0.3
v 0.3 2.6 -0.3
v -0.2 2.8 0.2
v 0.2 2.8 0.2
v -0.2 2.8 -0.2
v 0.2 2.8 -0.2

# faces
f 3/1/1 2/1/1 1/1/1
f 4/1/1 2/1/1 3/1/1
f 5/1/1 3/1/1 1/1/1
f 6/1/1 2/1/1 4/1/1
f 7/1/1 5/1/1 1/1/1
f 7/1/1 6/1/1 5/1/1
f 8/1/1 2/1/1 6/1/1
f 8/1/1 6/1/1 7/1/1
f 11/1/1 10/1/1 9/1/1
f 12/1/1 10/1/1 11/1/1
f 13/1/1 11/1/1 9/1/1
f 14/1/1 10/1/1 12/1/1
f 15/1/1 13/1/1 9/1/1
f 15/1/1 14/1/1 13/1/1
f 16/1/1 10/1/1 14/1/1
f 16/1/1 14/1/1 15/1/1
f 19/2/1 18/2/1 17/2/1
f 20/2/1 18/2/1 19/2/1
f 23/3/1 22/3/1 21/3/1
f 24/3/1 22/3/1 23/3/1
f 27/2/1 26/2/1 25/2/1
f 28/2/1 26/2/1 27/2/1
f 31/3/1 30/3/1 29/3/1
f 32/3/1 30/3/1 31/3/1
f 35/2/1 34/2/1 33/2/1
f 36/2/1 34/2/1 35/2/1
f 41/1/1 38/1/1 37/1/1
f 42/1/1 38/1/1 41/1/1
f 43/1/1 40/1/1 39/1/1
f 44/1/1 40/1/1 43/1/1
f 49/1/1 46/1/1 45/1/1
f 50/1/1 46/1/1 49/1/1
f 51/1/1 48/1/1 47/1/1
f 52/1/1 48/1/1 51/1/1
f 53/1/2 54/1/2 57/1/2
f 57/1/2 54/1/2 58/1/2
f 55/1/2 56/1/2 59/1/2
f 59/1/2 56/1/2 60/1/2
f 61/1/2 62/1/2 65/1/2
f 65/1/2 62/1/2 66/1/2
f 63/1/2 64/1/2 67/1/2
f 67/1/2 64/1/2 68/1/2
f 69/2/2 70/2/2 71/2/2
f 71/2/2 70/2/2 72/2/2
f 73/3/2 74/3/2 75/3/2
f 75/3/2 74/3/2 76/3/2
f 77/2/2 78/2/2 79/2/2
f 79/2/2 78/2/2 80/2/2
f 81/3/2 82/3/2 83/3/2
f 83/3/2 82/3/2 84/3/2
f 85/2/2 86/2/2 87/2/2
f 87/2/2 86/2/2 88/2/2
f 89/1/2 90/1/2 91/1/2
f 91/1/2 90/1/2 92/1/2
f 89/1/2 91/1/2 93/1/2
f 92/1/2 90/1/2 94/1/2
f 89/1/2 93/1/2 95/1/2
f 93/1/2 94/1/2 95/1/2
f 94/1/2 90/1/2 96/1/2
f 95/1/2 94/1/2 96/1/2
f 97/1/2 98/1/2 99/1/2
f 99/1/2 98/1/2 100/1/2
f 97/1/2 99/1/2 101/1/2
f 100/1/2 98/1/2 102/1/2
f 97/1/2 101/1/2 103/1/2
f 101/1/2 102/1/2 103/1/2
f 102/1/2 98/1/2 104/1/2
f 103/1/2 102/1/2 104/1/2
f 109/1/3 106/1/3 105/1/3
f 110/1/3 106/1/3 109/1/3
f 111/1/3 108/1/3 107/1/3
f 112/1/3 108/1/3 111/1/3
f 113/1/3 109/1/3 105/1/3
f 114/1/3 106/1/3 110/1/3
f 115/1/3 111/1/3 107/1/3
f 116/1/3 108/1/3 112/1/3
f 117/1/3 113/1/3 105/1/3
f 117/1/3 114/1/3 113/1/3
f 118/1/3 106/1/3 114/1/3
f 118/1/3 114/1/3 117/1/3
f 119/1/3 116/1/3 115/1/3
f 119/1/3 115/1/3 107/1/3
f 120/1/3 108/1/3 116/1/3
f 120/1/3 116/1/3 119/1/3
f 131/2/3 122/2/3 121/2/3
f 132/2/3 122/2/3 131/2/3
f 133/3/3 124/3/3 123/3/3
f 134/3/3 124/3/3 133/3/3
f 135/2/3 126/2/3 125/2/3
f 136/2/3 126/2/3 135/2/3
f 137/3/3 128/3/3 127/3/3
f 138/3/3 128/3/3 137/3/3
f 139/2/3 130/2/3 129/2/3
f 140/2/3 130/2/3 139/2/3
f 145/1/3 142/1/3 141/1/3
f 146/1/3 142/1/3 145/1/3
f 147/1/3 144/1/3 143/1/3
f 148/1/3 144/1/3 147/1/3
f 153/1/3 150/1/3 149/1/3
f 154/1/3 150/1/3 153/1/3
f 155/1/3 152/1/3 151/1/3
f 156/1/3 152/1/3 155/1/3
f 157/1/4 158/1/4 161/1/4
f 161/1/4 158/1/4 162/1/4
f 159/1/4 160/1/4 163/1/4
f 163/1/4 160/1/4 164/1/4
f 165/1/4 166/1/4 169/1/4
f 169/1/4 166/1/4 170/1/4
f 167/1/4 168/1/4 171/1/4
f 171/1/4 168/1/4 172/1/4
f 173/2/4 174/2/4 183/2/4
f 183/2/4 174/2/4 184/2/4
f 175/3/4 176/3/4 185/3/4
f 185/3/4 176/3/4 186/3/4
f 177/2/4 178/2/4 187/2/4
f 187/2/4 178/2/4 188/2/4
f 179/3/4 180/3/4 189/3/4
f 189/3/4 180/3/4 190/3/4
f 181/2/4 182/2/4 191/2/4
f 191/2/4 182/2/4 192/2/4
f 193/1/4 194/1/4 197/1/4
f 197/1/4 194/1/4 198/1/4
f 195/1/4 196/1/4 199/1/4
f 199/1/4 196/1/4 200/1/4
f 193/1/4 197/1/4 201/1/4
f 198/1/4 194/1/4 202/1/4
f 195/1/4 199/1/4 203/1/4
f 200/1/4 196/1/4 204/1/4
f 193/1/4 201/1/4 205/1/4
f 201/1/4 202/1/4 205/1/4
f 202/1/4 194/1/4 206/1/4
f 205/1/4 202/1/4 206/1/4
f 203/1/4 204/1/4 207/1/4
f 195/1/4 203/1/4 207/1/4
f 204/1/4 196/1/4 208/1/4
f 207/1/4 204/1/4 208/1/4
f 211/2/5 210/2/5 209/2/5
f 212/2/5 210/2/5 211/2/5
f 215/1/5 214/1/5 213/1/5
f 216/1/5 214/1/5 215/1/5
f 217/1/5 215/1/5 213/1/5
f 218/1/5 214/1/5 216/1/5
f 219/1/5 217/1/5 213/1/5
f 219/1/5 218/1/5 217/1/5
f 220/1/5 214/1/5 218/1/5
f 220/1/5 218/1/5 219/1/5
f 224/1/5 222/1/5 221/1/5
f 225/1/5 222/1/5 224/1/5
f 227/1/5 224/1/5 223/1/5
f 228/1/5 224/1/5 227/1/5
f 229/1/5 226/1/5 225/1/5
f 230/1/5 226/1/5 229/1/5
f 231/1/5 229/1/5 228/1/5
f 232/1/5 229/1/5 231/1/5
f 235/1/5 234/1/5 233/1/5
f 236/1/5 234/1/5 235/1/5
f 237/1/5 235/1/5 233/1/5
f 238/1/5 234/1/5 236/1/5
f 239/1/5 237/1/5 233/1/5
f 239/1/5 238/1/5 237/1/5
f 240/1/5 234/1/5 238/1/5
f 240/1/5 238/1/5 239/1/5
f 244/1/5 242/1/5 241/1/5
f 245/1/5 242/1/5 244/1/5
f 247/1/5 244/1/5 243/1/5
f 248/1/5 244/1/5 247/1/5
f 249/1/5 246/1/5 245/1/5
f 250/1/5 246/1/5 249/1/5
f 251/1/5 249/1/5 248/1/5
f 252/1/5 249/1/5 251/1/5
f 253/1/6 254/1/6 256/1/6
f 256/1/6 254/1/6 257/1/6
f 255/1/6 256/1/6 259/1/6
f 259/1/6 256/1/6 260/1/6
f 257/1/6 258/1/6 261/1/6
f 261/1/6 258/1/6 262/1/6
f 260/1/6 261/1/6 263/1/6
f 263/1/6 261/1/6 264/1/6
f 265/1/6 266/1/6 267/1/6
f 267/1/6 266/1/6 268/1/6
f 265/1/6 267/1/6 269/1/6
f 268/1/6 266/1/6 270/1/6
f 265/1/6 269/1/6 271/1/6
f 269/1/6 270/1/6 271/1/6
f 270/1/6 266/1/6 272/1/6
f 271/1/6 270/1/6 272/1/6
f 273/1/6 274/1/6 276/1/6
f 276/1/6 274/1/6 277/1/6
f 275/1/6 276/1/6 279/1/6
f 279/1/6 276/1/6 280/1/6
f 277/1/6 278/1/6 281/1/6
f 281/1/6 278/1/6 282/1/6
f 280/1/6 281/1/6 283/1/6
f 283/1/6 281/1/6 284/1/6
f 285/1/6 286/1/6 287/1/6
f 287/1/6 286/1/6 288/1/6
f 285/1/6 287/1/6 289/1/6
f 288/1/6 286/1/6 290/1/6
f 285/1/6 289/1/6 291/1/6
f 289/1/6 290/1/6 291/1/6
f 290/1/6 286/1/6 292/1/6
f 291/1/6 290/1/6 292/1/6
f 293/2/6 294/2/6 295/2/6
f 295/2/6 294/2/6 296/2/6
